<svg xmlns="http://www.w3.org/2000/svg" viewBox="0 0 65.89 68.83"><defs><style>.cls-1{fill:#fff;}</style></defs><g id="Layer_2" data-name="Layer 2"><g id="Layer_1-2" data-name="Layer 1"><path class="cls-1" d="M41.11,15.82c-2.7,0-5.4,0-8.1,0s-5.49,0-8.23,0a9.66,9.66,0,0,0-9.58,9.91q-.09,8.67,0,17.34A9.7,9.7,0,0,0,24.77,53q8.18.08,16.34,0a9.71,9.71,0,0,0,9.58-9.93q.09-8.67,0-17.35A9.67,9.67,0,0,0,41.11,15.82ZM33,46.38a12,12,0,1,1,11.62-12A11.84,11.84,0,0,1,33,46.38Zm12-20a3.43,3.43,0,0,1,.07-6.85,3.47,3.47,0,0,1,3.23,3.4A3.42,3.42,0,0,1,45,26.37Z"/><path class="cls-1" d="M32.92,0C14.74,0,0,15.44,0,34.46S14.8,68.81,32.9,68.83s33-15.45,33-34.42S51.12,0,32.92,0ZM54,44.56c0,6.68-4.88,11.78-11.26,11.83s-13,0-19.53,0S12,51.25,11.9,44.58c0-3.43,0-6.85,0-10.27s0-6.67,0-10c0-6.66,4.69-11.75,11.07-11.87q10-.18,19.93,0C49.29,12.56,54,17.63,54,24.3S54,37.81,54,44.56Z"/><path class="cls-1" d="M32.88,25.83a8.58,8.58,0,1,0,8.37,8.54A8.42,8.42,0,0,0,32.88,25.83Z"/></g></g></svg>