<svg xmlns="http://www.w3.org/2000/svg" viewBox="0 0 67.83 70.82"><defs><style>.cls-1{fill:#fff;}</style></defs><g id="Layer_2" data-name="Layer 2"><g id="Layer_1-2" data-name="Layer 1"><path class="cls-1" d="M34,0C15.15,0,.07,15.52,0,35.29S14.92,70.81,33.88,70.82,67.59,55.19,67.83,35.46C67.64,15.77,52.88.05,34,0Zm9.48,20.58c0,.91-.37,1.23-1.2,1.22-1.33,0-2.66,0-4,0a1.54,1.54,0,0,0-1.67,1.71c0,1.29,0,2.59,0,3.88,0,.79.32,1.06,1,1.05,1.55,0,3.1,0,4.65,0,.79,0,1.13.28,1,1.14-.22,2.16-.36,4.33-.65,6.48,0,.32-.69.76-1.08.78-1.58.09-3.17,0-4.89,0,0,.69-.1,1.28-.1,1.86q0,9.78,0,19.57c0,1.88,0,1.88-1.85,1.88H29c-2,0-2,0-2-2V38.75c0-1.86,0-1.86-1.82-1.86H22.66c0-2.68,0-5.08,0-7.48,0-.33.58-.82,1-.91a5.71,5.71,0,0,1,2,0c1,.1,1.39-.31,1.39-1.41a36.84,36.84,0,0,1,.26-5.95c.81-4.91,3.83-7.36,9.16-7.61,1.94-.08,3.89,0,5.84,0,.87,0,1.17.38,1.16,1.25C43.41,16.7,43.41,18.64,43.45,20.58Z"/></g></g></svg>