<svg xmlns="http://www.w3.org/2000/svg" viewBox="0 0 67.68 70.79"><defs><style>.cls-1{fill:#fff;}</style></defs><g id="Layer_2" data-name="Layer 2"><g id="Layer_1-2" data-name="Layer 1"><path class="cls-1" d="M34.09,0C16-.23.23,14.39,0,35.13c-.21,19,13.91,35.11,33.66,35.66C52,70.61,67.51,56,67.68,35.51,67.84,16.53,53.75.26,34.09,0Zm-9,51.73c0,1-.34,1.3-1.27,1.27-2-.06-4.07-.06-6.1,0-1,0-1.22-.4-1.22-1.32,0-3.88,0-7.77,0-11.65s.05-7.5,0-11.24c0-1.3.4-1.68,1.6-1.62,1.9.09,3.81.06,5.71,0,.9,0,1.29.28,1.29,1.25Q25,40.07,25.07,51.73ZM20.79,24A4.62,4.62,0,1,1,21,14.8a4.44,4.44,0,0,1,4.52,4.69A4.48,4.48,0,0,1,20.79,24ZM54.34,52a1.35,1.35,0,0,1-.88,1C51,53,48.6,53,46,53c0-.85-.1-1.54-.11-2.22,0-4.26,0-8.51-.11-12.77-.09-2.9-1.61-4.47-3.95-4.37a4.43,4.43,0,0,0-4.11,4.71c0,4.39,0,8.79,0,13.18,0,1.15-.32,1.53-1.43,1.5-2.28-.08-4.58,0-6.95,0V27.19h5.51c2.66,0,2.66,0,2.91,2.38,1.48-.85,3-2.12,4.65-2.61,5.87-1.72,11.26,2.05,11.7,8.36C54.46,40.85,54.31,46.41,54.34,52Z"/></g></g></svg>